<?xml version="1.0" encoding="UTF-8" standalone="no"?>
<!DOCTYPE svg PUBLIC "-//W3C//DTD SVG 1.1//EN" "http://www.w3.org/Graphics/SVG/1.1/DTD/svg11.dtd">
<!-- Generated by Microsoft Visio, SVG Export windows-device-v2.svg Page-1 -->
<svg xmlns="http://www.w3.org/2000/svg" xmlns:xlink="http://www.w3.org/1999/xlink" xmlns:ev="http://www.w3.org/2001/xml-events"
		width="16.1127in" height="11.0894in" viewBox="0 0 1160.11 798.44" xml:space="preserve" color-interpolation-filters="sRGB"
		class="st45">
	<style type="text/css">
	<![CDATA[
		.st1 {fill:url(#grad0-6);stroke:none;stroke-linecap:butt;stroke-width:0.75}
		.st2 {fill:#0078d4;stroke:none;stroke-linecap:butt;stroke-width:0.75}
		.st3 {fill:#f2f2f2;stroke:none;stroke-linecap:butt;stroke-width:0.75}
		.st4 {fill:#e6e6e6;stroke:none;stroke-linecap:butt;stroke-width:0.75}
		.st5 {fill:#000000;font-family:Calibri;font-size:0.75em}
		.st6 {fill:#f25022;stroke:none;stroke-linecap:butt;stroke-width:12.24}
		.st7 {fill:#57a300;stroke:none;stroke-linecap:butt;stroke-width:12.24}
		.st8 {fill:#00a4ef;stroke:none;stroke-linecap:butt;stroke-width:12.24}
		.st9 {fill:#ffb900;stroke:none;stroke-linecap:butt;stroke-width:12.24}
		.st10 {fill:#50e6ff;stroke:none;stroke-linecap:butt;stroke-width:34}
		.st11 {fill:#ffffff;stroke:none;stroke-linecap:butt;stroke-width:34}
		.st12 {fill:url(#grad0-38);stroke:none;stroke-linecap:butt;stroke-width:34}
		.st13 {fill:#53b1e0;stroke:none;stroke-linecap:butt;stroke-width:34}
		.st14 {fill:#9cebff;stroke:none;stroke-linecap:butt;stroke-width:34}
		.st15 {fill:url(#grad0-46);stroke:none;stroke-linecap:butt;stroke-width:34}
		.st16 {fill:#000000;font-family:Calibri;font-size:1.33333em;font-weight:bold}
		.st17 {font-size:1em}
		.st18 {fill:#939598;stroke:none;stroke-linecap:butt;stroke-width:0.75}
		.st19 {fill:#368cb2;stroke:none;stroke-linecap:butt;stroke-width:0.75}
		.st20 {fill:#414042;stroke:none;stroke-linecap:butt;stroke-width:0.75}
		.st21 {fill:#a7a9ac;stroke:none;stroke-linecap:butt;stroke-width:0.75}
		.st22 {fill:#3c99ba;stroke:none;stroke-linecap:butt;stroke-width:0.75}
		.st23 {fill:#ffc000;stroke:none;stroke-linecap:round;stroke-linejoin:round;stroke-width:0.75}
		.st24 {fill:#bf9000;stroke:none;stroke-linecap:round;stroke-linejoin:round;stroke-width:0.75}
		.st25 {fill:#ffffff;stroke:none;stroke-linecap:round;stroke-linejoin:round;stroke-width:0.75}
		.st26 {stroke:#ffffff;stroke-linecap:round;stroke-linejoin:round;stroke-width:0.502257}
		.st27 {stroke:#ffffff;stroke-linecap:round;stroke-linejoin:round;stroke-width:0.479768}
		.st28 {fill:#221f1f;stroke:none;stroke-linecap:butt;stroke-width:0.75}
		.st29 {fill:#5e615f;stroke:none;stroke-linecap:butt;stroke-width:0.75}
		.st30 {fill:#aad2f2;stroke:none;stroke-linecap:butt;stroke-width:0.75}
		.st31 {fill:#d1d3d4;fill-opacity:0.5;stroke:none;stroke-linecap:butt;stroke-width:0.75}
		.st32 {fill:#d8d8d8;stroke:#000000;stroke-linecap:round;stroke-linejoin:round;stroke-width:0.75}
		.st33 {fill:#000000;font-family:Calibri;font-size:1.00001em}
		.st34 {fill:#92d050;stroke:#000000;stroke-linecap:round;stroke-linejoin:round;stroke-width:0.75}
		.st35 {fill:#ffffff;stroke:#000000;stroke-linecap:round;stroke-linejoin:round;stroke-width:0.75}
		.st36 {fill:#00b0f0;stroke:#000000;stroke-linecap:round;stroke-linejoin:round;stroke-width:0.75}
		.st37 {fill:#ff0000;stroke:#000000;stroke-linecap:round;stroke-linejoin:round;stroke-width:0.75}
		.st38 {fill:#ab9ac0;stroke:#000000;stroke-linecap:round;stroke-linejoin:round;stroke-width:0.75}
		.st39 {fill:#ffd965;stroke:#000000;stroke-linecap:round;stroke-linejoin:round;stroke-width:0.75}
		.st40 {fill:#ed1c24}
		.st41 {marker-end:url(#mrkr13-313);stroke:#ff0000;stroke-linecap:round;stroke-linejoin:round;stroke-width:3}
		.st42 {fill:#ff0000;fill-opacity:1;stroke:#ff0000;stroke-opacity:1;stroke-width:0.54347826086957}
		.st43 {fill:none;stroke:none;stroke-linecap:round;stroke-linejoin:round;stroke-width:0.75}
		.st44 {font-size:1em;font-weight:normal}
		.st45 {fill:none;fill-rule:evenodd;font-size:12px;overflow:visible;stroke-linecap:square;stroke-miterlimit:3}
	]]>
	</style>

	<defs id="Patterns_And_Gradients">
		<linearGradient id="grad0-6" x1="0" y1="0" x2="1" y2="0" gradientTransform="rotate(-90 0.5 0.5)">
			<stop offset="0" stop-color="#32bedd" stop-opacity="1"/>
			<stop offset="0.175" stop-color="#32caea" stop-opacity="1"/>
			<stop offset="0.41" stop-color="#32d2f2" stop-opacity="1"/>
			<stop offset="0.775" stop-color="#32d4f5" stop-opacity="1"/>
		</linearGradient>
		<linearGradient id="grad0-38" x1="0" y1="0" x2="1" y2="0" gradientTransform="rotate(-133.54829310906 0.5 0.5)">
			<stop offset="0" stop-color="#1988d9" stop-opacity="1"/>
			<stop offset="0.9" stop-color="#54aef0" stop-opacity="1"/>
		</linearGradient>
		<linearGradient id="grad0-46" x1="0" y1="0" x2="1" y2="0" gradientTransform="rotate(65.834982258294 0.5 0.5)">
			<stop offset="0.1" stop-color="#54aef0" stop-opacity="1"/>
			<stop offset="0.29" stop-color="#4fabee" stop-opacity="1"/>
			<stop offset="0.51" stop-color="#41a2e9" stop-opacity="1"/>
			<stop offset="0.74" stop-color="#2a93e0" stop-opacity="1"/>
			<stop offset="0.88" stop-color="#1988d9" stop-opacity="1"/>
		</linearGradient>
	</defs>
	<defs id="Markers">
		<g id="lend13">
			<path d="M 3 1 L 0 0 L 3 -1 L 3 1 " style="stroke:none"/>
		</g>
		<marker id="mrkr13-313" class="st42" refX="-5.52" orient="auto" markerUnits="strokeWidth" overflow="visible">
			<use xlink:href="#lend13" transform="scale(-1.84,-1.84) "/>
		</marker>
	</defs>
	<g>
		<title>Page-1</title>
		<g id="group1131-1" transform="translate(959.94,-264.935)">
			<title>Powershell.1131</title>
			<desc>Powershell</desc>
			<g id="group1132-2">
				<title>Sheet.1132</title>
				<g id="shape1133-3">
					<title>Sheet.1133</title>
					<path d="M0 764.4 L57.6 764.4 L57.6 796.52 A1.92452 1.92452 0 0 1 55.68 798.44 L1.92 798.44 A1.92452 1.92452
								 0 0 1 0 796.52 L0 764.4 Z" class="st1"/>
				</g>
				<g id="shape1134-7" transform="translate(0,-34.0382)">
					<title>Sheet.1134</title>
					<path d="M1.93 786.17 L55.67 786.17 A1.92452 1.92452 0 0 1 57.59 788.09 L57.59 798.44 L0 798.44 L0 788.09 A1.92452
								 1.92452 0 0 1 1.93 786.17 Z" class="st2"/>
				</g>
				<g id="shape1135-9" transform="translate(-547.442,218.872) rotate(-45.081)">
					<title>Sheet.1135</title>
					<path d="M0.57 783.67 L2.34 783.67 a0.565835 0.565835 0 0 1 0.565835 0.565835 L2.9 797.31 A1.13506 1.13506 0
								 0 1 1.77 798.44 L0 798.44 L0 784.24 a0.565835 0.565835 0 0 1 0.565835 -0.565835 L0.57 783.67 Z"
							class="st3"/>
				</g>
				<g id="shape1136-11" transform="translate(-543.787,1346.01) rotate(-135.081)">
					<title>Sheet.1136</title>
					<path d="M0.57 783.88 L2.34 783.88 a0.565835 0.565835 0 0 1 0.565835 0.565835 L2.9 798.44 L1.14 798.44 A1.13506
								 1.13506 0 0 1 0 797.31 L0 784.43 a0.565835 0.565835 0 0 1 0.565835 -0.565835 L0.57 783.88 Z"
							class="st4"/>
				</g>
				<g id="shape1137-13" transform="translate(22.7723,-7.39652)">
					<title>Sheet.1137</title>
					<path d="M0 797.45 a0.985999 0.985999 -180 0 0 0.985976 0.985976 L15.18 798.44 a0.985999 0.985999 -180 0 0 0.985976
								 -0.985976 L16.17 796 a0.985999 0.985999 -180 0 0 -0.985976 -0.985976 L0.99 795.01 a0.985999 0.985999
								 -180 0 0 -0.985976 0.985976 L0 797.45 Z" class="st3"/>
				</g>
			</g>
			<g id="shape1131-15">
				<text x="8.65" y="807.62" class="st5">Powershell</text>			</g>
		</g>
		<g id="group1-17" transform="translate(12.24,-714.2)">
			<title>Microsoft</title>
			<g id="group2-18">
				<title>Sheet.2</title>
				<g id="shape3-19" transform="translate(0,-37.728)">
					<title>Sheet.3</title>
					<rect x="0" y="764.168" width="34.272" height="34.272" class="st6"/>
				</g>
				<g id="shape4-21" transform="translate(37.728,-37.728)">
					<title>Sheet.4</title>
					<rect x="0" y="764.168" width="34.272" height="34.272" class="st7"/>
				</g>
				<g id="shape5-23">
					<title>Sheet.5</title>
					<rect x="0" y="764.168" width="34.272" height="34.272" class="st8"/>
				</g>
				<g id="shape6-25" transform="translate(37.728,0)">
					<title>Sheet.6</title>
					<rect x="0" y="764.168" width="34.272" height="34.272" class="st9"/>
				</g>
			</g>
		</g>
		<g id="group7-27" transform="translate(381.24,-563.156)">
			<title>Active Directory</title>
			<desc>Azure AD (AAD)</desc>
			<g id="group8-28">
				<title>Sheet.8</title>
				<g id="shape9-29">
					<title>Sheet.9</title>
					<path d="M5.55 759.94 L49.11 788.21 L93.44 759.83 L99 766.32 L49.11 798.44 L0 766.32 L5.55 759.94 Z"
							class="st10"/>
				</g>
				<g id="shape10-31" transform="translate(8.855,-16.115)">
					<title>Sheet.10</title>
					<path d="M0 772.43 L40.26 724.47 L81.34 772.48 L40.26 798.44 L0 772.43 Z" class="st11"/>
				</g>
				<g id="shape11-33" transform="translate(8.855,-16.115)">
					<title>Sheet.11</title>
					<path d="M40.26 724.47 L40.26 798.44 L0 772.43 L40.26 724.47 Z" class="st10"/>
				</g>
				<g id="shape12-35" transform="translate(49.115,-16.115)">
					<title>Sheet.12</title>
					<path d="M0 724.47 L0 798.44 L41.08 772.48 L0 724.47 Z" class="st12"/>
				</g>
				<g id="shape13-39" transform="translate(49.115,-16.115)">
					<title>Sheet.13</title>
					<path d="M0 762.69 L41.08 772.48 L0 798.44 L0 762.69 Z" class="st13"/>
				</g>
				<g id="shape14-41" transform="translate(8.855,-16.115)">
					<title>Sheet.14</title>
					<path d="M40.26 798.44 L0 772.43 L40.26 762.69 L40.26 798.44 Z" class="st14"/>
				</g>
				<g id="shape15-43" transform="translate(49.115,4.54747E-13)">
					<title>Sheet.15</title>
					<path d="M0 798.44 L49.88 766.32 L44.33 759.83 L0 788.21 L0 798.44 Z" class="st15"/>
				</g>
			</g>
			<g id="shape7-47">
				<text x="18.61" y="825.4" class="st16">Azure AD<tspan x="29.78" dy="1.2em" class="st17">(AAD)</tspan></text>			</g>
		</g>
		<g id="group1000-50" transform="translate(615.24,-567.379)">
			<title>Portal.1000</title>
			<desc>Intune admin Portal</desc>
			<g id="group1001-51">
				<title>g10478</title>
				<g id="shape1002-52" transform="translate(0,-44.4727)">
					<title>rect10454</title>
					<path d="M0 796.89 A1.54691 1.54691 -180 0 0 1.55 798.44 L97.45 798.44 A1.54691 1.54691 -180 0 0 99 796.89 L99
								 767.12 A1.54691 1.54691 -180 0 0 97.45 765.57 L1.55 765.57 A1.54691 1.54691 -180 0 0 0 767.12 L0
								 796.89 Z" class="st18"/>
				</g>
				<g id="shape1003-54">
					<title>rect10456</title>
					<rect x="0" y="739.659" width="99" height="58.7812" class="st19"/>
				</g>
				<g id="shape1004-56" transform="translate(0,-0.0464047)">
					<title>rect10458</title>
					<rect x="0" y="738.158" width="20.1094" height="60.2817" class="st20"/>
				</g>
				<g id="shape1005-58" transform="translate(49.3298,-49.5)">
					<title>path10460</title>
					<path d="M49.67 772.14 L49.67 795.35 A3.09375 3.09375 0 0 1 46.58 798.44 L27.84 798.44 L0 770.6 L48.12 770.6
								 A1.54687 1.54687 0 0 1 49.67 772.14 Z" class="st21"/>
				</g>
				<g id="shape1006-60" transform="translate(67.8769,-27.6736)">
					<title>polygon10462</title>
					<path d="M0 767.33 L31.12 767.33 L31.12 798.44 L0 767.33 Z" class="st22"/>
				</g>
				<g id="shape1007-62" transform="translate(0,-58.7812)">
					<title>rect10464</title>
					<rect x="0" y="789.159" width="99" height="9.28125" class="st20"/>
				</g>
			</g>
			<g id="shape1000-64">
				<text x="4.87" y="822.17" class="st16">Intune admin <tspan x="29.41" dy="1.2em" class="st17">Portal</tspan></text>			</g>
		</g>
		<g id="group1008-67" transform="translate(150.899,-575.824)">
			<title>Active Directory.1008</title>
			<desc>Local AD (ADDS)</desc>
			<g id="shape1009-68">
				<title>Sheet.1009</title>
				<path d="M49.66 727.81 L0 789.79 L49.6 798.44 L49.66 727.81 L49.66 727.81 Z" class="st23"/>
			</g>
			<g id="shape1010-70" transform="translate(49.6623,0)">
				<title>Sheet.1010</title>
				<path d="M0 727.81 L49.34 789.79 L0.08 798.44 L0 727.81 L0 727.81 Z" class="st24"/>
			</g>
			<g id="shape1011-72" transform="translate(37.0033,-44.0607)">
				<title>Sheet.1011</title>
				<path d="M0 793.74 C0 791.15 2.11 789.04 4.71 789.04 C7.32 789.04 9.41 791.15 9.41 793.74 C9.41 796.35 7.32 798.44
							 4.71 798.44 C2.11 798.44 0 796.35 0 793.74 Z" class="st25"/>
			</g>
			<g id="shape1012-74" transform="translate(52.5836,-44.0607)">
				<title>Sheet.1012</title>
				<path d="M9.09 793.74 C9.09 791.15 7.06 789.04 4.54 789.04 C2.05 789.04 0 791.15 0 793.74 C0 796.35 2.05 798.44 4.54
							 798.44 C7.06 798.44 9.09 796.35 9.09 793.74 Z" class="st25"/>
			</g>
			<g id="shape1013-76" transform="translate(37.0033,-10.3672)">
				<title>Sheet.1013</title>
				<path d="M0 793.9 C0 791.41 2.11 789.37 4.71 789.37 C7.32 789.37 9.41 791.41 9.41 793.9 C9.41 796.42 7.32 798.44
							 4.71 798.44 C2.11 798.44 0 796.42 0 793.9 Z" class="st25"/>
			</g>
			<g id="shape1014-78" transform="translate(52.5836,-10.3672)">
				<title>Sheet.1014</title>
				<path d="M9.09 793.9 C9.09 791.41 7.06 789.37 4.54 789.37 C2.05 789.37 0 791.41 0 793.9 C0 796.42 2.05 798.44 4.54
							 798.44 C7.06 798.44 9.09 796.42 9.09 793.9 Z" class="st25"/>
			</g>
			<g id="shape1015-80" transform="translate(65.2426,-12.635)">
				<title>Sheet.1015</title>
				<path d="M9.41 793.74 C9.41 791.15 7.32 789.04 4.71 789.04 C2.11 789.04 0 791.15 0 793.74 C0 796.35 2.11 798.44 4.71
							 798.44 C7.32 798.44 9.41 796.35 9.41 793.74 Z" class="st25"/>
			</g>
			<g id="shape1016-82" transform="translate(24.3443,-12.635)">
				<title>Sheet.1016</title>
				<path d="M0 793.74 C0 791.15 2.11 789.04 4.71 789.04 C7.32 789.04 9.41 791.15 9.41 793.74 C9.41 796.35 7.32 798.44
							 4.71 798.44 C2.11 798.44 0 796.35 0 793.74 Z" class="st25"/>
			</g>
			<g id="shape1017-84" transform="translate(78.2262,-14.2549)">
				<title>Sheet.1017</title>
				<path d="M9.41 793.74 C9.41 791.15 7.32 789.04 4.71 789.04 C2.11 789.04 0 791.15 0 793.74 C0 796.35 2.11 798.44 4.71
							 798.44 C7.32 798.44 9.41 796.35 9.41 793.74 Z" class="st25"/>
			</g>
			<g id="shape1018-86" transform="translate(11.6852,-14.2549)">
				<title>Sheet.1018</title>
				<path d="M9.41 793.74 C9.41 791.15 7.32 789.04 4.71 789.04 C2.11 789.04 0 791.15 0 793.74 C0 796.35 2.11 798.44 4.71
							 798.44 C7.32 798.44 9.41 796.35 9.41 793.74 Z" class="st25"/>
			</g>
			<g id="shape1019-88" transform="translate(45.8484,-17.4287)">
				<title>Sheet.1019</title>
				<path d="M10.14 787.36 C10.75 792.91 7.28 797.83 2.37 798.39 C1.58 798.48 0.79 798.46 0 798.29" class="st26"/>
			</g>
			<g id="shape1020-91" transform="translate(43.5026,-17.4287)">
				<title>Sheet.1020</title>
				<path d="M0.07 787.36 C-0.56 792.91 2.91 797.83 7.82 798.39 C8.61 798.48 9.43 798.46 10.22 798.29" class="st26"/>
			</g>
			<g id="shape1021-94" transform="translate(42.643,-42.5064)">
				<title>Sheet.1021</title>
				<path d="M11.44 795.25 C9.17 798.73 4.1 799.48 0 796.97" class="st26"/>
			</g>
			<g id="shape1022-97" transform="translate(41.8721,-19.5398)">
				<title>Sheet.1022</title>
				<path d="M0 773.92 L0 798.44" class="st27"/>
			</g>
			<g id="shape1023-100" transform="translate(37.0033,-28.5098)">
				<title>Sheet.1023</title>
				<path d="M0 793.9 C0 791.41 2.11 789.37 4.71 789.37 C7.32 789.37 9.41 791.41 9.41 793.9 C9.41 796.42 7.32 798.44
							 4.71 798.44 C2.11 798.44 0 796.42 0 793.9 Z" class="st25"/>
			</g>
			<g id="shape1024-102" transform="translate(57.1279,-19.5398)">
				<title>Sheet.1024</title>
				<path d="M0 773.92 L0 798.44" class="st27"/>
			</g>
			<g id="shape1025-105" transform="translate(52.5836,-28.5098)">
				<title>Sheet.1025</title>
				<path d="M9.09 793.9 C9.09 791.41 7.06 789.37 4.54 789.37 C2.05 789.37 0 791.41 0 793.9 C0 796.42 2.05 798.44 4.54
							 798.44 C7.06 798.44 9.09 796.42 9.09 793.9 Z" class="st25"/>
			</g>
			<g id="shape1026-107" transform="translate(60.3738,-22.1113)">
				<title>Sheet.1026</title>
				<path d="M-0 775.19 L19.23 798.44" class="st27"/>
			</g>
			<g id="shape1027-110" transform="translate(65.2426,-29.1578)">
				<title>Sheet.1027</title>
				<path d="M9.41 793.74 C9.41 791.15 7.32 789.04 4.71 789.04 C2.11 789.04 0 791.15 0 793.74 C0 796.35 2.11 798.44 4.71
							 798.44 C7.32 798.44 9.41 796.35 9.41 793.74 Z" class="st25"/>
			</g>
			<g id="shape1028-112" transform="translate(19.8,-22.1113)">
				<title>Sheet.1028</title>
				<path d="M18.85 775.19 L-0 798.44" class="st27"/>
			</g>
			<g id="shape1029-115" transform="translate(24.9934,-29.1578)">
				<title>Sheet.1029</title>
				<path d="M0 793.74 C0 791.15 2.05 789.04 4.54 789.04 C7.06 789.04 9.09 791.15 9.09 793.74 C9.09 796.35 7.06 798.44
							 4.54 798.44 C2.05 798.44 -0 796.35 0 793.74 Z" class="st25"/>
			</g>
			<g id="shape1030-117" transform="translate(32.459,-20.7344)">
				<title>Sheet.1030</title>
				<path d="M6.11 789.37 L-0 798.44" class="st27"/>
			</g>
			<g id="shape1031-120" transform="translate(60.3738,-20.7344)">
				<title>Sheet.1031</title>
				<path d="M-0 789.37 L6.31 798.44" class="st27"/>
			</g>
			<g id="shape1008-123">
				<text x="20.86" y="851.24" class="st16">Local AD<tspan x="25.8" dy="1.2em" class="st17">(ADDS)</tspan></text>			</g>
		</g>
		<g id="group1080-126" transform="translate(157.229,-433.717)">
			<title>Laptop #2.1080</title>
			<g id="shape1081-127" transform="translate(8.62729,-2.15682)">
				<title>path2362</title>
				<path d="M65.78 798.44 L65.78 753.83 A1.75781 1.75781 -180 0 0 64.03 752.07 L1.76 752.07 A1.75781 1.75781 -180 0
							 0 0 753.83 L0 798.44 L65.78 798.44 Z" class="st28"/>
			</g>
			<g id="shape1082-129">
				<title>path2364</title>
				<path d="M0.1 796.28 C0.1 795.8 0.51 798.3 3.04 798.44 L79.02 798.44 C80.98 798.3 81.96 795.8 81.96 796.28 L81.96
							 795.2 L0 795.2 L0.1 796.28 Z" class="st28"/>
			</g>
			<g id="shape1083-131" transform="translate(40.9796,-46.3717)">
				<title>rect2366</title>
				<rect x="0" y="797.362" width="1.07841" height="1.07841" class="st29"/>
			</g>
			<g id="shape1084-133" transform="translate(39.9012,-5.39205)">
				<title>rect2368</title>
				<rect x="0" y="796.283" width="2.15682" height="2.15682" class="st29"/>
			</g>
			<g id="shape1085-135" transform="translate(11.8625,-8.62729)">
				<title>rect2370</title>
				<rect x="0" y="761.774" width="59.3126" height="36.666" class="st30"/>
			</g>
			<g id="shape1086-137" transform="translate(48.6579,-24.2211)">
				<title>polygon2372</title>
				<path d="M22.52 798.44 L22.52 777.37 L0 777.37 L22.52 798.44 Z" class="st31"/>
			</g>
		</g>
		<g id="group1087-139" transform="translate(959.94,-600)">
			<title>Powershell.1087</title>
			<desc>Powershell</desc>
			<g id="group1088-140">
				<title>Sheet.1088</title>
				<g id="shape1089-141">
					<title>Sheet.1089</title>
					<path d="M0 764.4 L57.6 764.4 L57.6 796.52 A1.92452 1.92452 0 0 1 55.68 798.44 L1.92 798.44 A1.92452 1.92452
								 0 0 1 0 796.52 L0 764.4 Z" class="st1"/>
				</g>
				<g id="shape1090-144" transform="translate(0,-34.0382)">
					<title>Sheet.1090</title>
					<path d="M1.93 786.17 L55.67 786.17 A1.92452 1.92452 0 0 1 57.59 788.09 L57.59 798.44 L0 798.44 L0 788.09 A1.92452
								 1.92452 0 0 1 1.93 786.17 Z" class="st2"/>
				</g>
				<g id="shape1091-146" transform="translate(-547.442,218.872) rotate(-45.081)">
					<title>Sheet.1091</title>
					<path d="M0.57 783.67 L2.34 783.67 a0.565835 0.565835 0 0 1 0.565835 0.565835 L2.9 797.31 A1.13506 1.13506 0
								 0 1 1.77 798.44 L0 798.44 L0 784.24 a0.565835 0.565835 0 0 1 0.565835 -0.565835 L0.57 783.67 Z"
							class="st3"/>
				</g>
				<g id="shape1092-148" transform="translate(-543.787,1346.01) rotate(-135.081)">
					<title>Sheet.1092</title>
					<path d="M0.57 783.88 L2.34 783.88 a0.565835 0.565835 0 0 1 0.565835 0.565835 L2.9 798.44 L1.14 798.44 A1.13506
								 1.13506 0 0 1 0 797.31 L0 784.43 a0.565835 0.565835 0 0 1 0.565835 -0.565835 L0.57 783.88 Z"
							class="st4"/>
				</g>
				<g id="shape1093-150" transform="translate(22.7723,-7.39652)">
					<title>Sheet.1093</title>
					<path d="M0 797.45 a0.985999 0.985999 -180 0 0 0.985976 0.985976 L15.18 798.44 a0.985999 0.985999 -180 0 0 0.985976
								 -0.985976 L16.17 796 a0.985999 0.985999 -180 0 0 -0.985976 -0.985976 L0.99 795.01 a0.985999 0.985999
								 -180 0 0 -0.985976 0.985976 L0 797.45 Z" class="st3"/>
				</g>
			</g>
			<g id="shape1087-152">
				<text x="8.65" y="807.62" class="st5">Powershell</text>			</g>
		</g>
		<g id="group1094-154" transform="translate(396.09,-437.154)">
			<title>Laptop #2.1094</title>
			<g id="shape1095-155" transform="translate(8.62729,-2.15682)">
				<title>path2362</title>
				<path d="M65.78 798.44 L65.78 753.83 A1.75781 1.75781 -180 0 0 64.03 752.07 L1.76 752.07 A1.75781 1.75781 -180 0
							 0 0 753.83 L0 798.44 L65.78 798.44 Z" class="st28"/>
			</g>
			<g id="shape1096-157">
				<title>path2364</title>
				<path d="M0.1 796.28 C0.1 795.8 0.51 798.3 3.04 798.44 L79.02 798.44 C80.98 798.3 81.96 795.8 81.96 796.28 L81.96
							 795.2 L0 795.2 L0.1 796.28 Z" class="st28"/>
			</g>
			<g id="shape1097-159" transform="translate(40.9796,-46.3717)">
				<title>rect2366</title>
				<rect x="0" y="797.362" width="1.07841" height="1.07841" class="st29"/>
			</g>
			<g id="shape1098-161" transform="translate(39.9012,-5.39205)">
				<title>rect2368</title>
				<rect x="0" y="796.283" width="2.15682" height="2.15682" class="st29"/>
			</g>
			<g id="shape1099-163" transform="translate(11.8625,-8.62729)">
				<title>rect2370</title>
				<rect x="0" y="761.774" width="59.3126" height="36.666" class="st30"/>
			</g>
			<g id="shape1100-165" transform="translate(48.6579,-24.2211)">
				<title>polygon2372</title>
				<path d="M22.52 798.44 L22.52 777.37 L0 777.37 L22.52 798.44 Z" class="st31"/>
			</g>
		</g>
		<g id="group1101-167" transform="translate(630.09,-435.004)">
			<title>Laptop #2.1101</title>
			<g id="shape1102-168" transform="translate(8.62729,-2.15682)">
				<title>path2362</title>
				<path d="M65.78 798.44 L65.78 753.83 A1.75781 1.75781 -180 0 0 64.03 752.07 L1.76 752.07 A1.75781 1.75781 -180 0
							 0 0 753.83 L0 798.44 L65.78 798.44 Z" class="st28"/>
			</g>
			<g id="shape1103-170">
				<title>path2364</title>
				<path d="M0.1 796.28 C0.1 795.8 0.51 798.3 3.04 798.44 L79.02 798.44 C80.98 798.3 81.96 795.8 81.96 796.28 L81.96
							 795.2 L0 795.2 L0.1 796.28 Z" class="st28"/>
			</g>
			<g id="shape1104-172" transform="translate(40.9796,-46.3717)">
				<title>rect2366</title>
				<rect x="0" y="797.362" width="1.07841" height="1.07841" class="st29"/>
			</g>
			<g id="shape1105-174" transform="translate(39.9012,-5.39205)">
				<title>rect2368</title>
				<rect x="0" y="796.283" width="2.15682" height="2.15682" class="st29"/>
			</g>
			<g id="shape1106-176" transform="translate(11.8625,-8.62729)">
				<title>rect2370</title>
				<rect x="0" y="761.774" width="59.3126" height="36.666" class="st30"/>
			</g>
			<g id="shape1107-178" transform="translate(48.6579,-24.2211)">
				<title>polygon2372</title>
				<path d="M22.52 798.44 L22.52 777.37 L0 777.37 L22.52 798.44 Z" class="st31"/>
			</g>
		</g>
		<g id="group1108-180" transform="translate(410.94,-177)">
			<title>Powershell.1108</title>
			<desc>Powershell</desc>
			<g id="group1109-181">
				<title>Sheet.1109</title>
				<g id="shape1110-182">
					<title>Sheet.1110</title>
					<path d="M0 764.4 L57.6 764.4 L57.6 796.52 A1.92452 1.92452 0 0 1 55.68 798.44 L1.92 798.44 A1.92452 1.92452
								 0 0 1 0 796.52 L0 764.4 Z" class="st1"/>
				</g>
				<g id="shape1111-185" transform="translate(0,-34.0382)">
					<title>Sheet.1111</title>
					<path d="M1.93 786.17 L55.67 786.17 A1.92452 1.92452 0 0 1 57.59 788.09 L57.59 798.44 L0 798.44 L0 788.09 A1.92452
								 1.92452 0 0 1 1.93 786.17 Z" class="st2"/>
				</g>
				<g id="shape1112-187" transform="translate(-547.442,218.872) rotate(-45.081)">
					<title>Sheet.1112</title>
					<path d="M0.57 783.67 L2.34 783.67 a0.565835 0.565835 0 0 1 0.565835 0.565835 L2.9 797.31 A1.13506 1.13506 0
								 0 1 1.77 798.44 L0 798.44 L0 784.24 a0.565835 0.565835 0 0 1 0.565835 -0.565835 L0.57 783.67 Z"
							class="st3"/>
				</g>
				<g id="shape1113-189" transform="translate(-543.787,1346.01) rotate(-135.081)">
					<title>Sheet.1113</title>
					<path d="M0.57 783.88 L2.34 783.88 a0.565835 0.565835 0 0 1 0.565835 0.565835 L2.9 798.44 L1.14 798.44 A1.13506
								 1.13506 0 0 1 0 797.31 L0 784.43 a0.565835 0.565835 0 0 1 0.565835 -0.565835 L0.57 783.88 Z"
							class="st4"/>
				</g>
				<g id="shape1114-191" transform="translate(22.7723,-7.39652)">
					<title>Sheet.1114</title>
					<path d="M0 797.45 a0.985999 0.985999 -180 0 0 0.985976 0.985976 L15.18 798.44 a0.985999 0.985999 -180 0 0 0.985976
								 -0.985976 L16.17 796 a0.985999 0.985999 -180 0 0 -0.985976 -0.985976 L0.99 795.01 a0.985999 0.985999
								 -180 0 0 -0.985976 0.985976 L0 797.45 Z" class="st3"/>
				</g>
			</g>
			<g id="shape1108-193">
				<text x="8.65" y="807.62" class="st5">Powershell</text>			</g>
		</g>
		<g id="shape1115-195" transform="translate(885.24,-528)">
			<title>Sheet.1115</title>
			<desc>deviceName</desc>
			<rect x="0" y="762.44" width="207" height="36" class="st32"/>
			<text x="73.23" y="784.04" class="st33">deviceName</text>		</g>
		<g id="shape1116-198" transform="translate(885.24,-492.85)">
			<title>Sheet.1116</title>
			<desc>id</desc>
			<rect x="0" y="762.44" width="207" height="36" class="st34"/>
			<text x="98.97" y="784.04" class="st33">id</text>		</g>
		<g id="shape1117-201" transform="translate(885.24,-459.375)">
			<title>Sheet.1117</title>
			<desc>userId</desc>
			<rect x="0" y="762.44" width="207" height="36" class="st35"/>
			<text x="88.26" y="784.04" class="st33">userId</text>		</g>
		<g id="shape1118-204" transform="translate(885.24,-423.375)">
			<title>Sheet.1118</title>
			<desc>managedDeviceId</desc>
			<rect x="0" y="762.44" width="207" height="36" class="st34"/>
			<text x="59.89" y="784.04" class="st33">managedDeviceId</text>		</g>
		<g id="shape1119-207" transform="translate(885.24,-562.875)">
			<title>Sheet.1119</title>
			<desc>Intune / Graph</desc>
			<rect x="0" y="762.44" width="207" height="36" class="st36"/>
			<text x="67.45" y="784.04" class="st33">Intune / Graph</text>		</g>
		<g id="shape1120-210" transform="translate(336.24,-105)">
			<title>Sheet.1120</title>
			<desc>DisplayName</desc>
			<rect x="0" y="762.44" width="207" height="36" class="st32"/>
			<text x="71.44" y="784.04" class="st33">DisplayName</text>		</g>
		<g id="shape1121-213" transform="translate(336.24,-69.8504)">
			<title>Sheet.1121</title>
			<desc>DeviceId (AADJ)</desc>
			<rect x="0" y="762.44" width="207" height="36" class="st34"/>
			<text x="65.01" y="784.04" class="st33">DeviceId (AADJ)</text>		</g>
		<g id="shape1122-216" transform="translate(336.24,-36.375)">
			<title>Sheet.1122</title>
			<desc>ObjectId</desc>
			<rect x="0" y="762.44" width="207" height="36" class="st35"/>
			<text x="82.74" y="784.04" class="st33">ObjectId</text>		</g>
		<g id="shape1123-219" transform="translate(336.24,-0.375)">
			<title>Sheet.1123</title>
			<desc>DeviceId (HAADJ)</desc>
			<rect x="0" y="762.44" width="207" height="36" class="st34"/>
			<text x="61.27" y="784.04" class="st33">DeviceId (HAADJ)</text>		</g>
		<g id="shape1124-222" transform="translate(336.24,-139.875)">
			<title>Sheet.1124</title>
			<desc>Azure AD Powershell</desc>
			<rect x="0" y="762.44" width="207" height="36" class="st36"/>
			<text x="52.68" y="784.04" class="st33">Azure AD Powershell</text>		</g>
		<g id="shape1125-225" transform="translate(885.24,-192.935)">
			<title>Sheet.1125</title>
			<desc>Serial Number</desc>
			<rect x="0" y="762.44" width="207" height="36" class="st37"/>
			<text x="68.63" y="784.04" class="st33">Serial Number</text>		</g>
		<g id="shape1126-228" transform="translate(885.24,-157.786)">
			<title>Sheet.1126</title>
			<desc>azureActiveDirectoryDeviceId</desc>
			<rect x="0" y="762.44" width="207" height="36" class="st38"/>
			<text x="31.32" y="784.04" class="st33">azureActiveDirectoryDeviceId</text>		</g>
		<g id="shape1127-231" transform="translate(885.24,-124.31)">
			<title>Sheet.1127</title>
			<desc>managedDeviceId</desc>
			<rect x="0" y="762.44" width="207" height="36" class="st34"/>
			<text x="59.89" y="784.04" class="st33">managedDeviceId</text>		</g>
		<g id="shape1128-234" transform="translate(885.24,-88.3104)">
			<title>Sheet.1128</title>
			<desc>azureAdDeviceId</desc>
			<rect x="0" y="762.44" width="207" height="36" class="st38"/>
			<text x="62.45" y="784.04" class="st33">azureAdDeviceId</text>		</g>
		<g id="shape1129-237" transform="translate(885.24,-227.81)">
			<title>Sheet.1129</title>
			<desc>windows autopilot device / Graph</desc>
			<rect x="0" y="762.44" width="207" height="36" class="st36"/>
			<text x="20.9" y="784.04" class="st33">windows autopilot device / Graph</text>		</g>
		<g id="shape1130-240" transform="translate(885.24,-52.3104)">
			<title>Sheet.1130</title>
			<desc>deviceName</desc>
			<rect x="0" y="762.44" width="207" height="36" class="st35"/>
			<text x="73.23" y="784.04" class="st33">deviceName</text>		</g>
		<g id="shape1138-243" transform="translate(126.57,-365.917)">
			<title>Sheet.1138</title>
			<desc>ObjectGUID</desc>
			<rect x="0" y="762.44" width="131.341" height="36" class="st39"/>
			<text x="36.74" y="784.04" class="st33">ObjectGUID</text>		</g>
		<g id="shape1139-246" transform="translate(126.57,-331.982)">
			<title>Sheet.1139</title>
			<desc>Name</desc>
			<rect x="0" y="762.44" width="131.341" height="36" class="st32"/>
			<text x="51.14" y="784.04" class="st33">Name</text>		</g>
		<g id="shape1140-249" transform="translate(378.57,-369.354)">
			<title>Sheet.1140</title>
			<desc>DeviceId</desc>
			<rect x="0" y="762.44" width="131.341" height="36" class="st39"/>
			<text x="44.72" y="784.04" class="st33">DeviceId</text>		</g>
		<g id="shape1141-252" transform="translate(378.57,-335.418)">
			<title>Sheet.1141</title>
			<desc>DisplayName</desc>
			<rect x="0" y="762.44" width="131.341" height="36" class="st32"/>
			<text x="33.61" y="784.04" class="st33">DisplayName</text>		</g>
		<g id="shape1142-255" transform="translate(378.57,-301.554)">
			<title>Sheet.1142</title>
			<desc>ObjectId</desc>
			<rect x="0" y="762.44" width="131.341" height="36" class="st35"/>
			<text x="44.91" y="784.04" class="st33">ObjectId</text>		</g>
		<g id="shape1143-258" transform="translate(618.899,-369.269)">
			<title>Sheet.1143</title>
			<desc>Intune Device ID</desc>
			<rect x="0" y="762.44" width="131.341" height="36" class="st34"/>
			<text x="25.5" y="784.04" class="st33">Intune Device ID</text>		</g>
		<g id="shape1144-261" transform="translate(618.899,-335.333)">
			<title>Sheet.1144</title>
			<desc>Azure AD Device ID</desc>
			<rect x="0" y="762.44" width="131.341" height="36" class="st39"/>
			<text x="18.88" y="784.04" class="st33">Azure AD Device ID</text>		</g>
		<g id="shape1145-264" transform="translate(618.899,-301.468)">
			<title>Sheet.1145</title>
			<desc>Serial Number</desc>
			<rect x="0" y="762.44" width="131.341" height="36" class="st37"/>
			<text x="30.8" y="784.04" class="st33">Serial Number</text>		</g>
		<g id="shape1146-267" transform="translate(618.899,-265.769)">
			<title>Sheet.1146</title>
			<desc>Name</desc>
			<rect x="0" y="762.44" width="131.341" height="36" class="st32"/>
			<text x="51.14" y="784.04" class="st33">Name</text>		</g>
		<g id="group1147-270" transform="translate(158.94,-199.871)">
			<title>Powershell.1147</title>
			<desc>Powershell</desc>
			<g id="group1148-271">
				<title>Sheet.1148</title>
				<g id="shape1149-272">
					<title>Sheet.1149</title>
					<path d="M0 764.4 L57.6 764.4 L57.6 796.52 A1.92452 1.92452 0 0 1 55.68 798.44 L1.92 798.44 A1.92452 1.92452
								 0 0 1 0 796.52 L0 764.4 Z" class="st1"/>
				</g>
				<g id="shape1150-275" transform="translate(0,-34.0382)">
					<title>Sheet.1150</title>
					<path d="M1.93 786.17 L55.67 786.17 A1.92452 1.92452 0 0 1 57.59 788.09 L57.59 798.44 L0 798.44 L0 788.09 A1.92452
								 1.92452 0 0 1 1.93 786.17 Z" class="st2"/>
				</g>
				<g id="shape1151-277" transform="translate(-547.442,218.872) rotate(-45.081)">
					<title>Sheet.1151</title>
					<path d="M0.57 783.67 L2.34 783.67 a0.565835 0.565835 0 0 1 0.565835 0.565835 L2.9 797.31 A1.13506 1.13506 0
								 0 1 1.77 798.44 L0 798.44 L0 784.24 a0.565835 0.565835 0 0 1 0.565835 -0.565835 L0.57 783.67 Z"
							class="st3"/>
				</g>
				<g id="shape1152-279" transform="translate(-543.787,1346.01) rotate(-135.081)">
					<title>Sheet.1152</title>
					<path d="M0.57 783.88 L2.34 783.88 a0.565835 0.565835 0 0 1 0.565835 0.565835 L2.9 798.44 L1.14 798.44 A1.13506
								 1.13506 0 0 1 0 797.31 L0 784.43 a0.565835 0.565835 0 0 1 0.565835 -0.565835 L0.57 783.88 Z"
							class="st4"/>
				</g>
				<g id="shape1153-281" transform="translate(22.7723,-7.39652)">
					<title>Sheet.1153</title>
					<path d="M0 797.45 a0.985999 0.985999 -180 0 0 0.985976 0.985976 L15.18 798.44 a0.985999 0.985999 -180 0 0 0.985976
								 -0.985976 L16.17 796 a0.985999 0.985999 -180 0 0 -0.985976 -0.985976 L0.99 795.01 a0.985999 0.985999
								 -180 0 0 -0.985976 0.985976 L0 797.45 Z" class="st3"/>
				</g>
			</g>
			<g id="shape1147-283">
				<text x="8.65" y="807.62" class="st5">Powershell</text>			</g>
		</g>
		<g id="shape1154-285" transform="translate(84.24,-127.871)">
			<title>Sheet.1154</title>
			<desc>Name</desc>
			<rect x="0" y="762.44" width="207" height="36" class="st32"/>
			<text x="88.97" y="784.04" class="st33">Name</text>		</g>
		<g id="shape1155-288" transform="translate(84.24,-92.7212)">
			<title>Sheet.1155</title>
			<desc>ObjectGUID</desc>
			<rect x="0" y="762.44" width="207" height="36" class="st39"/>
			<text x="74.57" y="784.04" class="st33">ObjectGUID</text>		</g>
		<g id="shape1156-291" transform="translate(84.24,-59.2458)">
			<title>Sheet.1156</title>
			<desc>DistinguishedName</desc>
			<rect x="0" y="762.44" width="207" height="36" class="st35"/>
			<text x="56.03" y="784.04" class="st33">DistinguishedName</text>		</g>
		<g id="shape1157-294" transform="translate(84.24,-23.2458)">
			<title>Sheet.1157</title>
			<desc>Enabled</desc>
			<rect x="0" y="762.44" width="207" height="36" class="st35"/>
			<text x="83.88" y="784.04" class="st33">Enabled</text>		</g>
		<g id="shape1158-297" transform="translate(84.24,-162.746)">
			<title>Sheet.1158</title>
			<desc>Local AD Powershell</desc>
			<rect x="0" y="762.44" width="207" height="36" class="st36"/>
			<text x="54.28" y="784.04" class="st33">Local AD Powershell</text>		</g>
		<g id="group1159-300" transform="translate(162.002,1271.92) scale(1,-1)">
			<title>Trend arrows 2.1159</title>
			<g id="shape1159-301">
				<path d="M22.68 793.6 L37.8 793.6 L37.8 763.97 L51.4 777.27 L51.4 763.97 L30.24 742.8 L9.07 763.97 L9.07 777.27 L22.68
							 763.97 L22.68 793.6 Z" class="st40"/>
			</g>
		</g>
		<g id="group1160-304" transform="translate(410.765,1308.13) scale(1,-1)">
			<title>Trend arrows 2.1160</title>
			<g id="shape1160-305">
				<path d="M22.68 793.6 L37.8 793.6 L37.8 763.97 L51.4 777.27 L51.4 763.97 L30.24 742.8 L9.07 763.97 L9.07 777.27 L22.68
							 763.97 L22.68 793.6 Z" class="st40"/>
			</g>
		</g>
		<g id="shape1161-308" transform="translate(176.862,-225.945) rotate(-44.0733)">
			<title>Sheet.1161</title>
			<path d="M0 798.44 L196.4 798.44" class="st41"/>
		</g>
		<g id="shape1162-314" transform="translate(1301.02,-212.66) rotate(45.4275)">
			<title>Sheet.1162</title>
			<path d="M0 798.44 L214.27 798.44" class="st41"/>
		</g>
		<g id="shape1163-319" transform="translate(88.74,-714.2)">
			<title>Sheet.1163</title>
			<desc>Windows Device ids A comprehensive flow about how attributes ...</desc>
			<rect x="0" y="726.44" width="247.5" height="72" class="st43"/>
			<text x="57.23" y="738.44" class="st16">Windows Device ids <tspan x="14.48" dy="1.2em" class="st44">A comprehensive flow about how </tspan><tspan
						x="25.67" dy="1.2em" class="st44">attributes are used and across </tspan><tspan x="20.47" dy="1.2em"
						class="st44">ADDS, Azure AD and M365. (v2)</tspan></text>		</g>
		<g id="shape1164-325" transform="translate(912.24,-709.31)">
			<title>Sheet.1164</title>
			<desc>Colors determines the correlation between all objects and out...</desc>
			<rect x="0" y="726.44" width="247.5" height="72" class="st43"/>
			<text x="12.91" y="738.44" class="st16">Colors determines <tspan class="st44">the correlation </tspan><tspan x="22.33"
						dy="1.2em" class="st44">between all objects and output </tspan><tspan x="40.41" dy="1.2em" class="st44">retrieved using GraphApi, </tspan><tspan
						x="60.44" dy="1.2em" class="st44">PowerShell and Gui</tspan></text>		</g>
	</g>
</svg>
